<svg xmlns="http://www.w3.org/2000/svg" viewBox="0 0 40 40" fill="none">
  <rect width="40" height="40" rx="11" fill="#18181b"/>
  <rect x="5" y="5" width="30" height="30" rx="8" stroke="rgb(255 255 255 / 0.12)" stroke-width="1"/>
  <rect x="9" y="9" width="22" height="9" rx="1.5" stroke="#818cf8" stroke-width="1.2"/>
  <line x1="9" y1="12.5" x2="31" y2="12.5" stroke="#818cf8" stroke-width="0.8" opacity="0.7"/>
  <rect x="11" y="14" width="4.5" height="2.5" rx="0.5" fill="#818cf8" opacity="0.55"/>
  <rect x="17" y="14" width="4.5" height="2.5" rx="0.5" fill="#818cf8" opacity="0.55"/>
  <rect x="23" y="14" width="4.5" height="2.5" rx="0.5" fill="#818cf8" opacity="0.55"/>
  <path d="M14.5 23.5 11 26.5 14.5 29.5" stroke="#34d399" stroke-width="1.4" stroke-linecap="round" stroke-linejoin="round"/>
  <path d="M25.5 23.5 29 26.5 25.5 29.5" stroke="#34d399" stroke-width="1.4" stroke-linecap="round" stroke-linejoin="round"/>
  <line x1="22.5" y1="22.5" x2="17.5" y2="30.5" stroke="#34d399" stroke-width="1.2" stroke-linecap="round"/>
  <circle cx="12" cy="33" r="1.4" fill="#fbbf24"/>
  <circle cx="20" cy="33" r="1.4" fill="#fbbf24"/>
  <circle cx="28" cy="33" r="1.4" fill="#fbbf24"/>
  <path d="M12 33h8M20 33h8" stroke="#fbbf24" stroke-width="1.2" stroke-linecap="round"/>
  <path d="M20 33v-2.5" stroke="#fbbf24" stroke-width="1.2" stroke-linecap="round"/>
</svg>
